<svg width="113" height="37" viewBox="0 0 113 37" fill="none" xmlns="http://www.w3.org/2000/svg">
<path d="M15.0494 0.849487L29.9491 26.6014L24.9954 35.1724L10.0957 9.45918L15.0494 0.849487Z" fill="white"/>
<path d="M0.188477 26.6013L8.4704 12.2776L13.4241 20.8873L5.14215 35.1724L0.188477 26.6013Z" fill="white"/>
<path d="M79.7572 19.4202C75.5775 19.4202 73.2168 21.9683 73.2168 25.1342V29.8058C73.2168 33.0104 75.5775 35.5199 79.7572 35.5199C84.0143 35.5199 86.2589 32.9717 86.2589 29.8058V25.1342C86.2589 22.0069 84.0143 19.4202 79.7572 19.4202ZM79.7572 33.7053C75.7323 33.7053 75.9645 31.0413 75.9645 27.5279C75.9645 24.0146 75.7323 21.2734 79.7572 21.2734C83.7821 21.2734 83.5111 24.0146 83.5111 27.5279C83.4724 31.0413 83.7821 33.7053 79.7572 33.7053Z" fill="white"/>
<path d="M54.9497 35.2498H51.7375L49.3768 28.9566H40.4757L38.1537 35.2498H35.0576L43.3395 14.4784H46.9L54.9497 35.2498ZM48.5254 26.7559L45.0036 17.374H44.694L41.1723 26.7559H48.5254Z" fill="white"/>
<path d="M60.0588 35.2497H57.1562V14.4397H60.0588V35.2497Z" fill="white"/>
<path d="M71.6292 35.5586C68.9202 35.6744 67.3721 35.2111 66.6368 34.5548C65.8628 33.8984 65.4758 32.6243 65.4758 30.6939V21.2734H62.2637V19.3816H65.4758V14.4011H68.4171V19.3816H71.6292V21.2734H68.3784V30.8483C68.3784 31.968 68.5719 32.7015 68.9976 33.0876C69.4233 33.4351 70.2747 33.6281 71.5905 33.6281V35.5586H71.6292Z" fill="white"/>
<path d="M112.111 17.4512H109.208V14.4397H112.111V17.4512ZM112.111 35.2497H109.208V19.4202H112.111V35.2497Z" fill="white"/>
<path d="M105.377 28.5318V21.4279C105.377 17.2582 102.59 14.4011 97.2494 14.4011C92.0248 14.4011 89.0449 17.2195 89.0449 21.4279V28.5704C89.0449 32.7788 91.9861 35.5972 97.2494 35.5972C98.8748 35.5972 100.229 35.3269 101.39 34.825L103.403 36.8327L104.99 35.2497L103.364 33.5895C104.68 32.3541 105.377 30.6167 105.377 28.5318ZM98.8362 29.111L97.2494 30.6939L99.765 33.2421C99.107 33.4737 98.2943 33.5895 97.2494 33.5895C91.6765 33.5895 92.0248 29.9217 92.0248 25.0571C92.0248 20.1924 91.7152 16.4088 97.2494 16.4088C102.822 16.3702 102.435 20.1538 102.435 25.0185C102.435 27.8369 102.551 30.2692 101.584 31.8135L98.8362 29.111Z" fill="white"/>
</svg>
